<?xml version="1.0" encoding="UTF-8" standalone="no"?>
<!-- Created with Inkscape (http://www.inkscape.org/) -->

<svg
   version="1.1"
   id="svg2"
   width="2184.9072"
   height="4399.1992"
   viewBox="0 0 2184.9072 4399.1993"
   sodipodi:docname="mockup.svg"
   inkscape:version="1.2 (1:1.2.1+202207142221+cd75a1ee6d)"
   xmlns:inkscape="http://www.inkscape.org/namespaces/inkscape"
   xmlns:sodipodi="http://sodipodi.sourceforge.net/DTD/sodipodi-0.dtd"
   xmlns="http://www.w3.org/2000/svg"
   xmlns:svg="http://www.w3.org/2000/svg">
  <defs
     id="defs6" />
  <sodipodi:namedview
     id="namedview4"
     pagecolor="#505050"
     bordercolor="#eeeeee"
     borderopacity="1"
     inkscape:showpageshadow="0"
     inkscape:pageopacity="0"
     inkscape:pagecheckerboard="0"
     inkscape:deskcolor="#505050"
     showgrid="false"
     inkscape:zoom="0.125"
     inkscape:cx="1176"
     inkscape:cy="2184"
     inkscape:window-width="1920"
     inkscape:window-height="1016"
     inkscape:window-x="0"
     inkscape:window-y="27"
     inkscape:window-maximized="1"
     inkscape:current-layer="g12">
    <inkscape:page
       x="0"
       y="0"
       id="page8"
       width="2184.9072"
       height="4399.1992" />
  </sodipodi:namedview>
  <g
     id="g10"
     inkscape:groupmode="layer"
     inkscape:label="Page 1"
     transform="matrix(1.3333333,0,0,-1.3333333,-113.46476,4792.3187)">
    <g
       id="g12"
       transform="scale(0.1)">
      <g
         id="g333"
         transform="translate(-11196.907,-851.11452)">
        <path
           id="path20"
           style="fill:#0d0d0d;fill-opacity:1;fill-rule:nonzero;stroke:none;stroke-width:2.25727"
           d="m 14634.463,36793.506 c -1332.69,0 -2423.174,-1090.498 -2423.174,-2423.188 V 6222.6853 c 0,-1332.7812 1090.484,-2423.1739 2423.174,-2423.1739 h 11213.541 c 1332.916,0 2423.173,1090.3927 2423.173,2423.1739 V 34370.318 c 0,1332.69 -1090.257,2423.188 -2423.173,2423.188 z m 195.147,-729.756 h 2685.893 c 1422.945,-0.04 4241.013,0 5500.035,0 h 2637.51 c 1040.758,0 1892.358,-851.586 1892.358,-1892.124 V 6421.4939 c 0,-1040.6926 -851.6,-1892.1974 -1892.358,-1892.1974 H 14829.61 c -1040.693,0 -1892.198,851.5048 -1892.198,1892.1974 V 34171.626 c 0,1040.538 851.505,1892.124 1892.198,1892.124 z" />
        <g
           id="g98"
           transform="scale(2.23723)">
          <path
             d="M 9557.61,16240.4 H 8553.38 c -16.4,0 -29.81,13.4 -29.81,29.8 v 0 c 0,16.4 13.41,29.8 29.81,29.8 h 1004.23 c 16.36,0 29.77,-13.4 29.77,-29.8 v 0 c 0,-16.4 -13.41,-29.8 -29.77,-29.8"
             style="fill:#2b2b2f;fill-opacity:1;fill-rule:nonzero;stroke:none"
             id="path100" />
        </g>
        <g
           id="g102"
           transform="scale(1.88836)"
           style="fill:#0d0d0d;fill-opacity:1">
          <path
             d="m 6489.61,15639.6 h -45.96 c -34.96,0 -63.55,28.6 -63.55,63.5 v 533.4 c 0,34.9 28.59,63.5 63.55,63.5 h 45.96 c 34.95,0 63.55,-28.6 63.55,-63.5 v -533.4 c 0,-34.9 -28.6,-63.5 -63.55,-63.5"
             style="fill:#0d0d0d;fill-opacity:1;fill-rule:nonzero;stroke:none"
             id="path104" />
        </g>
        <g
           id="g106"
           transform="scale(1.88836)"
           style="fill:#0d0d0d;fill-opacity:1">
          <path
             d="m 6389.37,15693.9 v 533.3 c 0,34.9 28.59,63.5 63.54,63.5 h 45.97 c 15.14,0 29.07,-5.3 40.03,-14.2 -11.7,14.3 -29.44,23.5 -49.3,23.5 h -45.96 c -34.96,0 -63.55,-28.6 -63.55,-63.5 v -533.4 c 0,-19.8 9.21,-37.6 23.56,-49.2 -8.89,10.9 -14.29,24.8 -14.29,40"
             style="fill:#0d0d0d;fill-opacity:1;fill-rule:nonzero;stroke:none"
             id="path108" />
        </g>
        <g
           id="g110"
           transform="scale(1.75571)"
           style="fill:#0d0d0d;fill-opacity:1">
          <path
             d="m 6979.9,14949.4 h -49.43 c -37.6,0 -68.35,30.8 -68.35,68.4 v 1213.9 c 0,37.5 30.75,68.3 68.35,68.3 h 49.43 c 37.6,0 68.35,-30.8 68.35,-68.3 v -1213.9 c 0,-37.6 -30.75,-68.4 -68.35,-68.4"
             style="fill:#0d0d0d;fill-opacity:1;fill-rule:nonzero;stroke:none"
             id="path112" />
        </g>
        <g
           id="g114"
           transform="scale(1.75571)"
           style="fill:#0d0d0d;fill-opacity:1">
          <path
             d="m 6872.43,15007.5 v 1213.8 c 0,37.6 30.75,68.4 68.34,68.4 h 49.5 c 16.18,0 31.04,-5.7 42.77,-15.2 -12.53,15.5 -31.72,25.5 -53.14,25.5 h -49.43 c -37.6,0 -68.35,-30.8 -68.35,-68.3 v -1213.9 c 0,-21.4 10.02,-40.6 25.51,-53.2 -9.45,11.8 -15.2,26.7 -15.2,42.9"
             style="fill:#0d0d0d;fill-opacity:1;fill-rule:nonzero;stroke:none"
             id="path116" />
        </g>
        <g
           id="g118"
           transform="scale(1.57412)"
           style="fill:#0d0d0d;fill-opacity:1">
          <path
             d="m 7785.13,14793.6 h -55.14 c -41.93,0 -76.24,34.3 -76.24,76.3 v 1353.9 c 0,41.9 34.31,76.2 76.24,76.2 h 55.14 c 41.93,0 76.23,-34.3 76.23,-76.2 v -1353.9 c 0,-42 -34.3,-76.3 -76.23,-76.3"
             style="fill:#0d0d0d;fill-opacity:1;fill-rule:nonzero;stroke:none"
             id="path120" />
        </g>
        <g
           id="g122"
           transform="scale(1.57412)"
           style="fill:#0d0d0d;fill-opacity:1">
          <path
             d="m 7664.49,14859.1 v 1354 c 0,41.9 34.3,76.2 76.23,76.2 h 55.15 c 18.23,0 35.06,-6.5 48.21,-17.3 -14.04,17.1 -35.26,28 -58.95,28 h -55.14 c -41.93,0 -76.24,-34.3 -76.24,-76.2 v -1353.9 c 0,-23.7 10.99,-45 28.02,-59 -10.8,13.2 -17.28,30 -17.28,48.2"
             style="fill:#0d0d0d;fill-opacity:1;fill-rule:nonzero;stroke:none"
             id="path124" />
        </g>
        <g
           id="g126"
           transform="scale(1.74446)"
           style="fill:#0d0d0d;fill-opacity:1">
          <path
             d="m 16231.2,13825.7 h -49.7 c -37.9,0 -68.8,31 -68.8,68.8 v 2022.7 c 0,37.8 30.9,68.8 68.8,68.8 h 49.7 c 37.8,0 68.8,-31 68.8,-68.8 v -2022.7 c 0,-37.8 -31,-68.8 -68.8,-68.8"
             style="fill:#0d0d0d;fill-opacity:1;fill-rule:nonzero;stroke:none"
             id="path128" />
        </g>
        <g
           id="g130"
           transform="scale(1.74446)"
           style="fill:#0d0d0d;fill-opacity:1">
          <path
             d="m 16267.6,15975.4 c 6.5,-10.5 10.4,-22.9 10.4,-36.3 v -2022.6 c 0,-37.9 -30.9,-68.8 -68.7,-68.8 h -49.8 c -13.3,0 -25.7,3.9 -36.3,10.5 12.2,-19.5 33.7,-32.5 58.3,-32.5 h 49.7 c 37.8,0 68.8,31 68.8,68.8 v 2022.7 c 0,24.5 -13,46.1 -32.4,58.2"
             style="fill:#0d0d0d;fill-opacity:1;fill-rule:nonzero;stroke:none"
             id="path132" />
        </g>
      </g>
    </g>
  </g>
</svg>
