<svg width="212" height="214" viewBox="0 0 212 214" fill="none"
    xmlns="http://www.w3.org/2000/svg">
    <path d="M68.7126 208.579C83.5693 217.533 94.168 213.816 98.2256 206.635C106.072 192.749 132.163 164.352 173.509 154.754C228.269 142.042 216.833 108.289 183.17 90.5777C149.506 72.866 124.336 48.3586 128.145 21.7111C131.955 -4.93632 94.2093 -14.1226 77.4233 37.1382C66.5758 70.2648 47.1364 79.1396 34.7402 81.2729C23.0571 83.2834 10.2772 85.8061 4.0451 95.8906C-3.51714 108.127 -0.878282 120.504 30.7831 128.993C75.6505 141.023 35.4124 188.506 68.7126 208.579Z" fill="#EBF2E3"/>
    <path d="M30.1119 150.518C30.7407 150.158 37.837 147.153 73.1399 163.612C73.037 163.752 72.9934 163.818 72.9934 163.818C72.9934 163.818 36.2925 176.178 29.1017 160.951C26.9544 156.418 27.5697 153.297 30.0506 150.553L30.1119 150.518Z" fill="#7FA05C"/>
    <path d="M148.768 156.746C141.098 163.194 129.07 167.874 117.464 161.65C119.298 160.478 121.192 159.271 123.124 158.023C134.78 150.534 145.046 155.545 148.768 156.746Z" fill="#7FA05C"/>
    <path d="M162.506 77.4423C170.343 142.694 151.72 154.537 149.647 156.336C149.047 156.856 148.803 156.818 147.896 156.585L147.881 156.594C144.04 155.575 134.78 150.534 123.124 158.022C121.192 159.27 119.297 160.477 117.464 161.649C105.574 169.19 95.9718 174.504 89.0543 171.42C83.1868 168.427 77.8963 165.836 73.1401 163.611C37.8371 147.153 30.7408 150.157 30.1121 150.517C30.8416 150.12 37.534 146.41 46.5453 139.887C46.5759 139.869 46.6066 139.852 46.6132 139.828C58.6579 131.099 74.7883 117.343 86.3828 99.6476C94.2759 87.6148 101.998 57.1105 116.896 51.1252C147.516 39.7026 161.235 64.1697 162.506 77.4423Z" fill="#D7F0BE"/>
    <path d="M37.1964 100.478C37.1964 100.478 24.2326 96.6871 26.3117 100.968C28.3908 105.248 34.1389 113.809 43.3114 115.888C52.4839 117.845 46.9804 109.773 47.1027 109.895L37.1964 100.478Z" fill="#F1F3F9" stroke="#C7EEA0" stroke-width="2" stroke-miterlimit="10"/>
    <path d="M23.499 92.1619C26.8011 95.8309 40.621 101.212 51.8726 100.723C53.4625 112.464 54.6855 116.01 56.7646 117.478C51.1388 118.946 35.9736 117.723 33.8945 106.349C23.2544 106.838 23.499 92.1619 23.499 92.1619Z" fill="white" stroke="#C7EEA0" stroke-width="2" stroke-miterlimit="10" stroke-linejoin="round"/>
    <path d="M167.499 111.967C171.168 109.521 177.772 98.1473 178.75 88.3633C189.146 88.3633 192.325 87.8741 194.038 86.1619C194.527 91.2985 193.548 103.895 184.743 111.356C174.959 112.334 167.499 111.967 167.499 111.967Z" fill="white" stroke="#C7EEA0" stroke-width="2" stroke-miterlimit="10" stroke-linejoin="round"/>
    <path d="M122.116 69.6721L124.071 67.7129C124.641 67.1415 124.641 66.1619 124.071 65.5904C123.501 65.019 122.523 65.019 121.953 65.5904L119.999 67.5496L118.044 65.5904C117.474 65.019 116.496 65.019 115.926 65.5904C115.356 66.1619 115.356 67.1415 115.926 67.7129L117.881 69.6721L115.926 71.6313C115.356 72.2027 115.356 73.1823 115.926 73.7537C116.252 74.0802 116.578 74.1619 116.985 74.1619C117.392 74.1619 117.718 73.9986 118.044 73.7537L119.999 71.7945L121.953 73.7537C122.279 74.0802 122.605 74.1619 123.012 74.1619C123.419 74.1619 123.745 73.9986 124.071 73.7537C124.641 73.1823 124.641 72.2027 124.071 71.6313L122.116 69.6721Z" fill="#386664"/>
    <path d="M145.851 69.6721L148.023 67.7129C148.657 67.1415 148.657 66.1619 148.023 65.5904C147.39 65.019 146.304 65.019 145.67 65.5904L143.499 67.5496L141.327 65.5904C140.693 65.019 139.607 65.019 138.974 65.5904C138.34 66.1619 138.34 67.1415 138.974 67.7129L141.146 69.6721L138.974 71.6313C138.34 72.2027 138.34 73.1823 138.974 73.7537C139.336 74.0802 139.698 74.1619 140.15 74.1619C140.603 74.1619 140.965 73.9986 141.327 73.7537L143.499 71.7945L145.67 73.7537C146.032 74.0802 146.394 74.1619 146.847 74.1619C147.299 74.1619 147.661 73.9986 148.023 73.7537C148.657 73.1823 148.657 72.2027 148.023 71.6313L145.851 69.6721Z" fill="#386664"/>
    <path fill-rule="evenodd" clip-rule="evenodd" d="M79.2278 51.9201C79.3748 50.98 80.256 50.3372 81.196 50.4841L87.8427 51.5234C88.7828 51.6704 89.4256 52.5516 89.2787 53.4916C89.1317 54.4316 88.2505 55.0745 87.3105 54.9275L80.6637 53.8883C79.7237 53.7413 79.0808 52.8601 79.2278 51.9201Z" fill="#8ADB39"/>
    <path fill-rule="evenodd" clip-rule="evenodd" d="M83.0258 33.1449C83.7595 32.5391 84.8454 32.6429 85.4511 33.3766L94.2869 44.079C94.8926 44.8127 94.7889 45.8985 94.0552 46.5042C93.3215 47.11 92.2357 47.0062 91.6299 46.2725L82.7941 35.5702C82.1884 34.8365 82.2921 33.7506 83.0258 33.1449Z" fill="#8ADB39"/>
    <path fill-rule="evenodd" clip-rule="evenodd" d="M96.9358 26.6343C97.8477 26.363 98.8069 26.8823 99.0783 27.7942L103.036 41.0963C103.308 42.0082 102.789 42.9674 101.877 43.2388C100.965 43.5102 100.005 42.9909 99.7341 42.0789L95.7759 28.7769C95.5046 27.8649 96.0238 26.9057 96.9358 26.6343Z" fill="#8ADB39"/>
    <rect x="120.499" y="82.1619" width="23" height="3" rx="1.5" fill="#386664"/>
    <path d="M134.499 83.1619H138.499V88.1619C138.499 89.2664 137.603 90.1619 136.499 90.1619C135.394 90.1619 134.499 89.2664 134.499 88.1619V83.1619Z" fill="#386664"/>
    <path d="M173.138 49.2417C174.994 49.2417 176.498 47.7374 176.498 45.8817C176.498 44.0261 174.994 42.5217 173.138 42.5217C171.283 42.5217 169.778 44.0261 169.778 45.8817C169.778 47.7374 171.283 49.2417 173.138 49.2417Z" fill="#8ADB39"/>
    <path d="M165.859 164.882C167.714 164.882 169.219 163.378 169.219 161.522C169.219 159.666 167.714 158.162 165.859 158.162C164.003 158.162 162.499 159.666 162.499 161.522C162.499 163.378 164.003 164.882 165.859 164.882Z" fill="#8ADB39"/>
    <path d="M147.107 40.01L156.468 49.3712M156.61 40.01L147.249 49.3712L156.61 40.01Z" stroke="#8ADB39" stroke-width="2.5" stroke-linecap="round" stroke-linejoin="round"/>
    <path d="M26.4985 75.1619L33.2185 81.8819M33.2185 75.1619L26.4985 81.8819L33.2185 75.1619Z" stroke="#8ADB39" stroke-width="2.5" stroke-linecap="round" stroke-linejoin="round"/>
    <path d="M56.6583 52.6018C58.514 52.6018 60.0183 51.0975 60.0183 49.2418C60.0183 47.3862 58.514 45.8818 56.6583 45.8818C54.8027 45.8818 53.2983 47.3862 53.2983 49.2418C53.2983 51.0975 54.8027 52.6018 56.6583 52.6018Z" fill="#8ADB39"/>
    <path d="M74.8585 189.882C76.7142 189.882 78.2185 188.378 78.2185 186.522C78.2185 184.666 76.7142 183.162 74.8585 183.162C73.0029 183.162 71.4985 184.666 71.4985 186.522C71.4985 188.378 73.0029 189.882 74.8585 189.882Z" stroke="#8ADB39" stroke-width="2"/>
</svg>
