<?xml version="1.0" encoding="UTF-8" standalone="no"?>
<svg
   version="1.1"
   viewBox="0.00 0.00 222.00 240.00"
   id="svg48"
   sodipodi:docname="UILS.svg"
   inkscape:version="1.2.2 (b0a8486541, 2022-12-01)"
   xmlns:inkscape="http://www.inkscape.org/namespaces/inkscape"
   xmlns:sodipodi="http://sodipodi.sourceforge.net/DTD/sodipodi-0.dtd"
   xmlns="http://www.w3.org/2000/svg"
   xmlns:svg="http://www.w3.org/2000/svg">
  <defs
     id="defs52" />
  <sodipodi:namedview
     id="namedview50"
     pagecolor="#ffffff"
     bordercolor="#000000"
     borderopacity="0.25"
     inkscape:showpageshadow="2"
     inkscape:pageopacity="0.0"
     inkscape:pagecheckerboard="0"
     inkscape:deskcolor="#d1d1d1"
     showgrid="false"
     inkscape:zoom="3.4541667"
     inkscape:cx="110.88058"
     inkscape:cy="120.14475"
     inkscape:window-width="1920"
     inkscape:window-height="1009"
     inkscape:window-x="-8"
     inkscape:window-y="101"
     inkscape:window-maximized="1"
     inkscape:current-layer="svg48" />
  <g
     stroke-width="2.00"
     fill="none"
     stroke-linecap="butt"
     id="g36">
    <path
       stroke="#e3d992"
       vector-effect="non-scaling-stroke"
       d="   M 138.31 201.34   Q 137.84 200.59 137.85 199.50   Q 138.03 107.63 138.00 15.92   A 0.77 0.75 0.4 0 0 137.24 15.17   L 109.22 15.15   A 0.64 0.63 -89.6 0 0 108.58 15.79   L 108.38 226.71   A 0.33 0.33 0.0 0 0 108.71 227.04   L 149.58 226.96   A 0.93 0.92 -89.7 0 0 150.50 226.04   L 150.56 202.28   A 0.77 0.77 0.0 0 0 149.78 201.51   L 139.04 201.74   A 0.83 0.83 0.0 0 1 138.31 201.34"
       id="path28" />
    <path
       stroke="#b1d79f"
       vector-effect="non-scaling-stroke"
       d="   M 100.80 17.80   A 1.87 1.87 0.0 0 0 98.93 15.93   L 79.43 15.93   A 1.87 1.87 0.0 0 0 77.56 17.80   L 77.56 225.08   A 1.87 1.87 0.0 0 0 79.43 226.95   L 98.93 226.95   A 1.87 1.87 0.0 0 0 100.80 225.08   L 100.80 17.80"
       id="path30" />
    <path
       stroke="#b1d79f"
       vector-effect="non-scaling-stroke"
       d="   M 184.03 53.39   Q 185.14 53.42 185.14 54.53   L 185.19 101.30   A 0.62 0.61 90.0 0 0 185.80 101.92   L 209.45 101.84   A 0.64 0.64 0.0 0 0 210.09 101.20   Q 210.20 75.65 210.26 50.25   C 210.26 48.11 209.99 46.37 208.38 44.76   C 194.25 30.62 174.92 21.06 155.36 16.93   A 0.87 0.86 7.0 0 0 154.31 17.74   Q 154.06 24.61 154.05 31.75   Q 153.97 81.61 154.31 131.73   Q 154.32 132.95 155.54 132.97   L 184.28 133.31   Q 184.99 133.32 184.99 134.03   L 185.06 187.89   Q 185.06 189.35 183.60 189.44   L 179.05 189.71   A 1.66 1.65 -2.0 0 1 177.29 188.07   L 177.02 142.22   A 1.30 1.30 0.0 0 0 175.72 140.93   L 154.79 140.93   A 0.57 0.53 -90.0 0 0 154.26 141.50   L 154.09 225.16   A 0.89 0.88 -6.0 0 0 155.17 226.03   Q 185.07 219.56 206.74 199.64   C 208.21 198.29 210.21 196.44 210.21 194.67   Q 210.26 153.16 209.97 111.45   A 1.74 1.74 0.0 0 0 208.22 109.72   L 178.45 109.81   A 0.93 0.92 86.9 0 1 177.53 108.98   Q 177.28 106.74 177.29 104.50   Q 177.35 80.62 177.59 56.75   Q 177.61 55.21 177.72 54.17   Q 177.82 53.21 178.79 53.24   L 184.03 53.39"
       id="path32" />
    <path
       stroke="#b1d79f"
       vector-effect="non-scaling-stroke"
       d="   M 41.07 190.72   A 1.28 1.28 0.0 0 1 39.71 189.45   C 39.25 130.20 39.60 79.10 38.87 32.50   Q 38.85 30.95 38.77 29.59   A 0.39 0.39 0.0 0 0 38.19 29.27   C 33.75 31.84 14.98 43.81 14.98 48.75   Q 15.01 122.05 14.96 195.35   C 14.96 196.47 15.34 198.00 16.05 198.69   Q 38.20 220.31 68.47 226.65   A 0.70 0.70 0.0 0 0 69.31 226.00   Q 69.71 216.00 69.71 206.00   Q 69.78 131.37 69.82 56.75   Q 69.83 39.12 69.41 21.50   Q 69.37 20.10 69.24 19.10   A 1.20 1.19 -9.7 0 0 67.80 18.09   Q 57.57 20.38 47.88 24.41   Q 47.38 24.62 47.31 25.16   Q 47.02 27.47 47.02 30.50   Q 46.97 110.10 47.03 189.04   Q 47.03 190.35 45.73 190.43   L 41.07 190.72"
       id="path34" />
  </g>
  <path
     fill="#cfba2d"
     d="   M 138.31 201.34   A 0.83 0.83 0.0 0 0 139.04 201.74   L 149.78 201.51   A 0.77 0.77 0.0 0 1 150.56 202.28   L 150.50 226.04   A 0.93 0.92 -89.7 0 1 149.58 226.96   L 108.71 227.04   A 0.33 0.33 0.0 0 1 108.38 226.71   L 108.58 15.79   A 0.64 0.63 -89.6 0 1 109.22 15.15   L 137.24 15.17   A 0.77 0.75 0.4 0 1 138.00 15.92   Q 138.03 107.63 137.85 199.50   Q 137.84 200.59 138.31 201.34   Z"
     id="path40" />
  <rect
     fill="#6ab747"
     x="77.56"
     y="15.93"
     width="23.24"
     height="211.02"
     rx="1.87"
     id="rect42" />
  <path
     fill="#6ab747"
     d="   M 184.03 53.39   L 178.79 53.24   Q 177.82 53.21 177.72 54.17   Q 177.61 55.21 177.59 56.75   Q 177.35 80.62 177.29 104.50   Q 177.28 106.74 177.53 108.98   A 0.93 0.92 86.9 0 0 178.45 109.81   L 208.22 109.72   A 1.74 1.74 0.0 0 1 209.97 111.45   Q 210.26 153.16 210.21 194.67   C 210.21 196.44 208.21 198.29 206.74 199.64   Q 185.07 219.56 155.17 226.03   A 0.89 0.88 -6.0 0 1 154.09 225.16   L 154.26 141.50   A 0.57 0.53 -90.0 0 1 154.79 140.93   L 175.72 140.93   A 1.30 1.30 0.0 0 1 177.02 142.22   L 177.29 188.07   A 1.66 1.65 -2.0 0 0 179.05 189.71   L 183.60 189.44   Q 185.06 189.35 185.06 187.89   L 184.99 134.03   Q 184.99 133.32 184.28 133.31   L 155.54 132.97   Q 154.32 132.95 154.31 131.73   Q 153.97 81.61 154.05 31.75   Q 154.06 24.61 154.31 17.74   A 0.87 0.86 7.0 0 1 155.36 16.93   C 174.92 21.06 194.25 30.62 208.38 44.76   C 209.99 46.37 210.26 48.11 210.26 50.25   Q 210.20 75.65 210.09 101.20   A 0.64 0.64 0.0 0 1 209.45 101.84   L 185.80 101.92   A 0.62 0.61 -90.0 0 1 185.19 101.30   L 185.14 54.53   Q 185.14 53.42 184.03 53.39   Z"
     id="path44" />
  <path
     fill="#6ab747"
     d="   M 41.07 190.72   L 45.73 190.43   Q 47.03 190.35 47.03 189.04   Q 46.97 110.10 47.02 30.50   Q 47.02 27.47 47.31 25.16   Q 47.38 24.62 47.88 24.41   Q 57.57 20.38 67.80 18.09   A 1.20 1.19 -9.7 0 1 69.24 19.10   Q 69.37 20.10 69.41 21.50   Q 69.83 39.12 69.82 56.75   Q 69.78 131.37 69.71 206.00   Q 69.71 216.00 69.31 226.00   A 0.70 0.70 0.0 0 1 68.47 226.65   Q 38.20 220.31 16.05 198.69   C 15.34 198.00 14.96 196.47 14.96 195.35   Q 15.01 122.05 14.98 48.75   C 14.98 43.81 33.75 31.84 38.19 29.27   A 0.39 0.39 0.0 0 1 38.77 29.59   Q 38.85 30.95 38.87 32.50   C 39.60 79.10 39.25 130.20 39.71 189.45   A 1.28 1.28 0.0 0 0 41.07 190.72   Z"
     id="path46" />
</svg>
